HIERARCHY
ROOT Hips
{
	OFFSET 0.00000 0.00000 0.00000
	CHANNELS 6 Xposition Yposition Zposition Zrotation Yrotation Xrotation 
	JOINT LHipJoint
	{
		OFFSET 0 0 0
		CHANNELS 3 Zrotation Yrotation Xrotation
		JOINT LeftHip
		{
			OFFSET 1.58895 -1.83665 0.71753
			CHANNELS 3 Zrotation Yrotation Xrotation
			JOINT LeftKnee
			{
				OFFSET 2.50528 -6.88321 0.00000
				CHANNELS 3 Zrotation Yrotation Xrotation
				JOINT LeftAnkle
				{
					OFFSET 2.63244 -7.23257 0.00000
					CHANNELS 3 Zrotation Yrotation Xrotation
					JOINT LeftToe
					{
						OFFSET 0.23691 -0.65090 1.72750
						CHANNELS 3 Zrotation Yrotation Xrotation
						End Site
						{
							OFFSET 0.00000 -0.00000 0.92561
						}
					}
				}
			}
		}
	}
	JOINT RHipJoint
	{
		OFFSET 0 0 0
		CHANNELS 3 Zrotation Yrotation Xrotation
		JOINT RightHip
		{
			OFFSET -1.51435 -1.83665 0.71753
			CHANNELS 3 Zrotation Yrotation Xrotation
			JOINT RightKnee
			{
				OFFSET -2.54551 -6.99375 0.00000
				CHANNELS 3 Zrotation Yrotation Xrotation
				JOINT RightAnkle
				{
					OFFSET -2.66027 -7.30903 0.00000
					CHANNELS 3 Zrotation Yrotation Xrotation
					JOINT RightToe
					{
						OFFSET -0.22981 -0.63138 2.03959
						CHANNELS 3 Zrotation Yrotation Xrotation
						End Site
						{
							OFFSET -0.00000 -0.00000 1.07060
						}
					}
				}
			}
		}
	}
	JOINT lowerback
	{
		OFFSET 0 0 0
		CHANNELS 3 Zrotation Yrotation Xrotation
		JOINT Chest
		{
			OFFSET -0.02651 1.86275 -0.11152
			CHANNELS 3 Zrotation Yrotation Xrotation
			JOINT Chest2
			{
				OFFSET 0.01019 1.86224 0.04087
				CHANNELS 3 Zrotation Yrotation Xrotation
				JOINT lowerneck
				{
					OFFSET 0 0 0
					CHANNELS 3 Zrotation Yrotation Xrotation
					JOINT Neck
					{
						OFFSET -0.01926 1.80512 0.08867
						CHANNELS 3 Zrotation Yrotation Xrotation
						JOINT Head
						{
							OFFSET 0.05516 1.76451 -0.38475
							CHANNELS 3 Zrotation Yrotation Xrotation
							End Site
							{
								OFFSET 0.01592 1.82587 -0.14001
							}
						}
					}
				}
				JOINT LeftCollar
				{
					OFFSET 0 0 0
					CHANNELS 3 Zrotation Yrotation Xrotation
					JOINT LeftShoulder
					{
						OFFSET 3.47116 1.51376 0.14491
CHANNELS 3 Zrotation Xrotation Yrotation
						JOINT LeftElbow
						{
OFFSET 0 -4.780950 0.000000
CHANNELS 3 Zrotation Xrotation Yrotation
							JOINT LeftWrist
							{
OFFSET 0 -3.586150 -0.000000
CHANNELS 3 Zrotation Xrotation Yrotation
								JOINT lhand
								{
									OFFSET 0 0 0
CHANNELS 3 Zrotation Xrotation Yrotation
									JOINT LFingers
									{
OFFSET 0 -0.659810 0.000000
CHANNELS 3 Zrotation Xrotation Yrotation
										End Site
										{
OFFSET 0 -0.531960 0.000000
										}
									}
								}
								JOINT LThumb
								{
OFFSET 0 0.000000 0.000000
CHANNELS 3 Zrotation Xrotation Yrotation
									End Site
									{
OFFSET 0 -0.540080 0.540080
									}
								}
							}
						}
					}
				}
				JOINT RightCollar
				{
					OFFSET 0 0 0
					CHANNELS 3 Zrotation Yrotation Xrotation
					JOINT RightShoulder
					{
						OFFSET -3.31725 1.61216 0.35156
CHANNELS 3 Zrotation Xrotation Yrotation
						JOINT RightElbow
						{
OFFSET 0 -4.489130 0.000000
CHANNELS 3 Zrotation Xrotation Yrotation
							JOINT RightWrist
							{
OFFSET 0 -3.705100 0.000000
CHANNELS 3 Zrotation Xrotation Yrotation
								JOINT rhand
								{
									OFFSET 0 0 0
CHANNELS 3 Zrotation Xrotation Yrotation
									JOINT RFingers
									{
OFFSET 0 -0.449140 0.000000
CHANNELS 3 Zrotation Xrotation Yrotation
										End Site
										{
OFFSET 0 -0.362110 0.000000
										}
									}
								}
								JOINT RThumb
								{
OFFSET 0 0.000000 0.000000
CHANNELS 3 Zrotation Xrotation Yrotation
									End Site
									{
OFFSET 0 -0.367630 0.367630
									}
								}
							}
						}
					}
				}
			}
		}
	}
}
MOTION
Frames: 5
Frame Time: .0083333
-0.6345 18.5914 6.3837 -2.2277 -3.2442 -1.4790 0.0000 0.0000 0.0000 -14.0404 -7.4345 1.7038 1.5871 7.9471 22.5536 1.7316 3.3113 -26.2313 8.4323 -16.4282 -54.1054 0.0000 0.0000 0.0000 14.2199 -9.9127 9.2438 0.0000 0.0000 -0.0000 -0.5156 0.3267 -13.4567 -0.1992 2.8740 -7.9281 0.0098 0.7187 4.3648 1.0083 0.9796 0.4176 0.9702 0.4923 -2.0350 -2.3777 -1.7325 -11.3615 1.9758 -2.2882 16.6174 0.8174 -1.0768 7.0031 -0.0000 -0.0000 0.0000 -2.5395 8.3562 -35.3953 19.6275 -30.1909 5.3427 8.2555 4.6964 25.7229 0.0 0.0 0.0 -7.1250 0.0 0.0 -12.9768 4.5799 -12.2233 -0.0000 -0.0000 0.0000 -1.4944 15.1172 27.2944 -23.9776 -35.1405 -7.6936 -9.1226 19.9929 28.5902 0.0 0.0 0.0 7.1250 0.0 -0.0 23.7043 57.2619 -7.4
-0.6325 18.5914 6.3820 -2.1524 -3.2522 -1.4795 0.0000 0.0000 0.0000 -14.1329 -7.4719 1.7728 1.5742 7.9163 22.4601 1.7319 3.3178 -26.2360 8.4048 -16.4091 -54.0081 0.0000 0.0000 0.0000 14.1379 -9.8983 9.2337 0.0000 0.0000 -0.0000 -0.5138 0.2785 -13.4491 -0.2199 3.0185 -8.3304 -0.0579 0.7214 4.3419 0.9871 0.9791 0.4529 0.9870 0.4924 -1.9867 -2.4465 -1.7556 -11.3678 2.0189 -2.3153 16.6569 0.8400 -1.0903 7.0190 -0.0000 -0.0000 0.0000 -2.5166 8.3592 -35.4912 19.8252 -30.4311 5.4425 6.1923 5.8966 25.0939 0.0 0.0 0.0 -7.1250 0.0 0.0 -14.2043 5.3959 -13.228 -0.0000 -0.0000 0.0000 -1.505 14.99 27.2849 -23.9884 -35.152 -7.6999 -9.1168 19.9318 28.5559 0.0 0.0 0.0 7.1250 0.0 -0.0 23.6853 57.2294 -7.3747
-0.6312 18.5911 6.3808 -2.1172 -3.2249 -1.4834 0.0000 0.0000 0.0000 -14.1856 -7.5641 1.8486 1.5672 7.8996 22.4094 1.7462 3.2263 -26.2950 8.3547 -16.3740 -53.8304 0.0000 0.0000 0.0000 14.0935 -9.9230 9.2281 0.0000 0.0000 0.0000 -0.5139 0.2718 -13.4526 -0.2299 3.0863 -8.5191 -0.0963 0.7131 4.3290 0.9851 0.9659 0.4777 1.0076 0.4859 -1.9544 -2.5363 -1.8244 -11.4242 2.0623 -2.4007 16.7368 0.8603 -1.1326 7.0585 0.0000 -0.0000 0.0000 -2.4986 8.3734 -35.5118 19.9309 -30.559 5.4962 5.0733 6.5015 24.7563 0.0 0.0 0.0 -7.1250 0.0 0.0 -14.8748 5.8221 -13.7727 0.0000 -0.0000 0.0000 -1.4825 14.8714 27.187 -23.9672 -35.1296 -7.6877 -8.8987 19.8305 28.6455 0.0 0.0 0.0 7.1250 0.0 -0.0 23.9684 57.2652 -7.491
-0.6306 18.5910 6.3794 -2.0767 -3.1529 -1.4904 0.0000 0.0000 0.0000 -14.2190 -7.5747 1.8705 1.5601 7.8824 22.3573 1.7476 3.0998 -26.2470 8.3369 -16.3616 -53.7674 0.0000 0.0000 0.0000 14.0398 -9.9919 9.2170 0.0000 0.0000 -0.0000 -0.5131 0.2754 -13.4414 -0.2250 3.0534 -8.4275 0.0477 0.7335 4.7540 0.8603 1.0018 0.2041 0.7890 0.5033 -2.4697 -2.4466 -1.8184 -11.1370 2.0440 -2.4147 16.8484 0.8404 -1.1372 7.0430 0.0000 -0.0000 0.0000 -2.2701 8.8112 -35.5767 19.9393 -30.5691 5.5004 5.0252 6.5624 24.7244 0.0 0.0 0.0 -7.1250 0.0 0.0 -14.9038 5.8569 -13.7912 0.0000 -0.0000 0.0000 -1.1985 15.2733 26.8647 -24.0335 -35.1997 -7.7259 -8.7757 19.8616 28.8393 0.0 0.0 0.0 7.1250 0.0 -0.0 24.2329 57.4149 -7.6695
-0.6298 18.5913 6.3778 -2.0300 -3.0670 -1.4728 0.0000 0.0000 0.0000 -14.2470 -7.5546 1.8301 1.5545 7.8690 22.3169 1.7399 3.0256 -26.1586 8.3541 -16.3736 -53.8285 0.0000 0.0000 0.0000 13.9835 -10.0678 9.1773 0.0000 -0.0000 0.0000 -0.5109 0.2729 -13.4124 -0.2184 3.0088 -8.3031 0.0629 0.7221 4.8941 0.8148 0.9879 0.1059 0.7322 0.4962 -2.6480 -2.2183 -1.6102 -10.8246 1.8667 -2.1440 16.7615 0.7731 -1.0102 6.9488 -0.0000 -0.0000 0.0000 -2.1841 8.9086 -35.4572 19.8501 -30.4614 5.4552 5.1249 6.732 24.7644 0.0 0.0 0.0 -7.1250 0.0 0.0 -14.8439 5.8098 -13.7455 -0.0000 -0.0000 0.0000 -1.0826 15.401 26.7292 -24.1113 -35.2818 -7.7708 -8.9769 19.8891 28.8817 0.0 0.0 0.0 7.1250 0.0 -0.0 24.0625 57.4957 -7.6589
